<svg xmlns="http://www.w3.org/2000/svg" viewBox="0 0 12 8" shape-rendering="crispEdges">
  <!-- Row 0 -->
  <rect x="2.12" y="0.12" width="0.76" height="0.76" fill="#2E2E2C"/>
  <rect x="3.12" y="0.12" width="0.76" height="0.76" fill="#2E2E2C"/>
  <rect x="4.12" y="0.12" width="0.76" height="0.76" fill="#2E2E2C"/>
  <rect x="5.12" y="0.12" width="0.76" height="0.76" fill="#2E2E2C"/>
  <rect x="6.12" y="0.12" width="0.76" height="0.76" fill="#2E2E2C"/>
  <rect x="7.12" y="0.12" width="0.76" height="0.76" fill="#2E2E2C"/>
  <rect x="8.12" y="0.12" width="0.76" height="0.76" fill="#2E2E2C"/>
  <rect x="9.12" y="0.12" width="0.76" height="0.76" fill="#2E2E2C"/>
  <!-- Row 1 -->
  <rect x="1.12" y="1.12" width="0.76" height="0.76" fill="#2E2E2C"/>
  <rect x="2.12" y="1.12" width="0.76" height="0.76" fill="#1E1E1C"/>
  <rect x="3.12" y="1.12" width="0.76" height="0.76" fill="#1E1E1C"/>
  <rect x="4.12" y="1.12" width="0.76" height="0.76" fill="#1E1E1C"/>
  <rect x="5.12" y="1.12" width="0.76" height="0.76" fill="#1E1E1C"/>
  <rect x="6.12" y="1.12" width="0.76" height="0.76" fill="#1E1E1C"/>
  <rect x="7.12" y="1.12" width="0.76" height="0.76" fill="#1E1E1C"/>
  <rect x="8.12" y="1.12" width="0.76" height="0.76" fill="#1E1E1C"/>
  <rect x="9.12" y="1.12" width="0.76" height="0.76" fill="#1E1E1C"/>
  <rect x="10.12" y="1.12" width="0.76" height="0.76" fill="#2E2E2C"/>
  <!-- Row 2 -->
  <rect x="0.12" y="2.12" width="0.76" height="0.76" fill="#2E2E2C"/>
  <rect x="1.12" y="2.12" width="0.76" height="0.76" fill="#1E1E1C"/>
  <rect x="2.12" y="2.12" width="0.76" height="0.76" fill="#1E1E1C"/>
  <rect x="3.12" y="2.12" width="0.76" height="0.76" fill="#DEDAD2"/>
  <rect x="4.12" y="2.12" width="0.76" height="0.76" fill="#DEDAD2"/>
  <rect x="5.12" y="2.12" width="0.76" height="0.76" fill="#DEDAD2"/>
  <rect x="6.12" y="2.12" width="0.76" height="0.76" fill="#DEDAD2"/>
  <rect x="7.12" y="2.12" width="0.76" height="0.76" fill="#DEDAD2"/>
  <rect x="8.12" y="2.12" width="0.76" height="0.76" fill="#DEDAD2"/>
  <rect x="9.12" y="2.12" width="0.76" height="0.76" fill="#1E1E1C"/>
  <rect x="10.12" y="2.12" width="0.76" height="0.76" fill="#1E1E1C"/>
  <rect x="11.12" y="2.12" width="0.76" height="0.76" fill="#2E2E2C"/>
  <!-- Row 3 -->
  <rect x="0.12" y="3.12" width="0.76" height="0.76" fill="#2E2E2C"/>
  <rect x="1.12" y="3.12" width="0.76" height="0.76" fill="#1E1E1C"/>
  <rect x="2.12" y="3.12" width="0.76" height="0.76" fill="#DEDAD2"/>
  <rect x="3.12" y="3.12" width="0.76" height="0.76" fill="#DEDAD2"/>
  <rect x="4.12" y="3.12" width="0.76" height="0.76" fill="#4A4846"/>
  <rect x="5.12" y="3.12" width="0.76" height="0.76" fill="#4A4846"/>
  <rect x="6.12" y="3.12" width="0.76" height="0.76" fill="#4A4846"/>
  <rect x="7.12" y="3.12" width="0.76" height="0.76" fill="#4A4846"/>
  <rect x="8.12" y="3.12" width="0.76" height="0.76" fill="#DEDAD2"/>
  <rect x="9.12" y="3.12" width="0.76" height="0.76" fill="#DEDAD2"/>
  <rect x="10.12" y="3.12" width="0.76" height="0.76" fill="#1E1E1C"/>
  <rect x="11.12" y="3.12" width="0.76" height="0.76" fill="#2E2E2C"/>
  <!-- Row 4 -->
  <rect x="0.12" y="4.12" width="0.76" height="0.76" fill="#2E2E2C"/>
  <rect x="1.12" y="4.12" width="0.76" height="0.76" fill="#1E1E1C"/>
  <rect x="2.12" y="4.12" width="0.76" height="0.76" fill="#DEDAD2"/>
  <rect x="3.12" y="4.12" width="0.76" height="0.76" fill="#4A4846"/>
  <rect x="4.12" y="4.12" width="0.76" height="0.76" fill="#4A4846"/>
  <rect x="5.12" y="4.12" width="0.76" height="0.76" fill="#0A0A08"/>
  <rect x="6.12" y="4.12" width="0.76" height="0.76" fill="#0A0A08"/>
  <rect x="7.12" y="4.12" width="0.76" height="0.76" fill="#4A4846"/>
  <rect x="8.12" y="4.12" width="0.76" height="0.76" fill="#4A4846"/>
  <rect x="9.12" y="4.12" width="0.76" height="0.76" fill="#DEDAD2"/>
  <rect x="10.12" y="4.12" width="0.76" height="0.76" fill="#1E1E1C"/>
  <rect x="11.12" y="4.12" width="0.76" height="0.76" fill="#2E2E2C"/>
  <!-- Row 5 (mirror of row 3) -->
  <rect x="0.12" y="5.12" width="0.76" height="0.76" fill="#2E2E2C"/>
  <rect x="1.12" y="5.12" width="0.76" height="0.76" fill="#1E1E1C"/>
  <rect x="2.12" y="5.12" width="0.76" height="0.76" fill="#DEDAD2"/>
  <rect x="3.12" y="5.12" width="0.76" height="0.76" fill="#DEDAD2"/>
  <rect x="4.12" y="5.12" width="0.76" height="0.76" fill="#4A4846"/>
  <rect x="5.12" y="5.12" width="0.76" height="0.76" fill="#4A4846"/>
  <rect x="6.12" y="5.12" width="0.76" height="0.76" fill="#4A4846"/>
  <rect x="7.12" y="5.12" width="0.76" height="0.76" fill="#4A4846"/>
  <rect x="8.12" y="5.12" width="0.76" height="0.76" fill="#DEDAD2"/>
  <rect x="9.12" y="5.12" width="0.76" height="0.76" fill="#DEDAD2"/>
  <rect x="10.12" y="5.12" width="0.76" height="0.76" fill="#1E1E1C"/>
  <rect x="11.12" y="5.12" width="0.76" height="0.76" fill="#2E2E2C"/>
  <!-- Row 6 (mirror of row 1) -->
  <rect x="1.12" y="6.12" width="0.76" height="0.76" fill="#2E2E2C"/>
  <rect x="2.12" y="6.12" width="0.76" height="0.76" fill="#1E1E1C"/>
  <rect x="3.12" y="6.12" width="0.76" height="0.76" fill="#1E1E1C"/>
  <rect x="4.12" y="6.12" width="0.76" height="0.76" fill="#1E1E1C"/>
  <rect x="5.12" y="6.12" width="0.76" height="0.76" fill="#1E1E1C"/>
  <rect x="6.12" y="6.12" width="0.76" height="0.76" fill="#1E1E1C"/>
  <rect x="7.12" y="6.12" width="0.76" height="0.76" fill="#1E1E1C"/>
  <rect x="8.12" y="6.12" width="0.76" height="0.76" fill="#1E1E1C"/>
  <rect x="9.12" y="6.12" width="0.76" height="0.76" fill="#1E1E1C"/>
  <rect x="10.12" y="6.12" width="0.76" height="0.76" fill="#2E2E2C"/>
  <!-- Row 7 (mirror of row 0) -->
  <rect x="2.12" y="7.12" width="0.76" height="0.76" fill="#2E2E2C"/>
  <rect x="3.12" y="7.12" width="0.76" height="0.76" fill="#2E2E2C"/>
  <rect x="4.12" y="7.12" width="0.76" height="0.76" fill="#2E2E2C"/>
  <rect x="5.12" y="7.12" width="0.76" height="0.76" fill="#2E2E2C"/>
  <rect x="6.12" y="7.12" width="0.76" height="0.76" fill="#2E2E2C"/>
  <rect x="7.12" y="7.12" width="0.76" height="0.76" fill="#2E2E2C"/>
  <rect x="8.12" y="7.12" width="0.76" height="0.76" fill="#2E2E2C"/>
  <rect x="9.12" y="7.12" width="0.76" height="0.76" fill="#2E2E2C"/>
</svg>
