<svg xmlns="http://www.w3.org/2000/svg" xmlns:xlink="http://www.w3.org/1999/xlink" viewBox="0 0 440 888"><defs><linearGradient x1="100%" y1="50%" x2="34.03%" y2="50%" id="a"><stop stop-color="#9E9D97" offset="0%"/><stop stop-color="#999893" offset="58.33%"/><stop stop-color="#62615C" offset="64.89%"/><stop stop-color="#595853" offset="100%"/></linearGradient><linearGradient x1="50%" y1="0%" x2="50%" y2="98.55%" id="c"><stop stop-color="#807F7A" stop-opacity="0" offset="0%"/><stop stop-color="#706F6A" stop-opacity=".19" offset=".99%"/><stop stop-color="#272621" offset="2.24%"/><stop stop-color="#7F7E79" stop-opacity="0" offset="7.3%"/><stop stop-color="#9E9D98" stop-opacity="0" offset="94.29%"/><stop stop-color="#272621" offset="97.86%"/><stop stop-color="#272621" stop-opacity="0" offset="100%"/></linearGradient><linearGradient x1="100%" y1="50%" x2="34.03%" y2="50%" id="e"><stop stop-color="#9E9D97" offset="0%"/><stop stop-color="#999893" offset="58.33%"/><stop stop-color="#6A6965" offset="62.7%"/><stop stop-color="#595853" offset="100%"/></linearGradient><linearGradient x1="50%" y1="0%" x2="50%" y2="98.55%" id="g"><stop stop-color="#807F7A" stop-opacity="0" offset="0%"/><stop stop-color="#706F6A" stop-opacity=".19" offset=".99%"/><stop stop-color="#272621" offset="2.24%"/><stop stop-color="#7F7E79" stop-opacity="0" offset="7.3%"/><stop stop-color="#9E9D98" stop-opacity="0" offset="94.29%"/><stop stop-color="#272621" offset="97.86%"/><stop stop-color="#272621" stop-opacity="0" offset="100%"/></linearGradient><linearGradient x1="100%" y1="50%" x2="34.03%" y2="50%" id="i"><stop stop-color="#9E9D97" offset="0%"/><stop stop-color="#999893" offset="58.33%"/><stop stop-color="#6A6965" offset="62.7%"/><stop stop-color="#595853" offset="100%"/></linearGradient><linearGradient x1="50%" y1="0%" x2="50%" y2="98.55%" id="k"><stop stop-color="#807F7A" stop-opacity="0" offset="0%"/><stop stop-color="#706F6A" stop-opacity=".19" offset=".99%"/><stop stop-color="#272621" offset="2.24%"/><stop stop-color="#7F7E79" stop-opacity="0" offset="7.3%"/><stop stop-color="#9E9D98" stop-opacity="0" offset="94.29%"/><stop stop-color="#272621" offset="97.86%"/><stop stop-color="#272621" stop-opacity="0" offset="100%"/></linearGradient><linearGradient x1="50%" y1="0%" x2="50%" y2="100%" id="o"><stop stop-color="#BFBEBA" offset="0%"/><stop stop-color="#AAA7A0" offset="100%"/></linearGradient><linearGradient x1="50%" y1="0%" x2="50%" y2="100%" id="r"><stop stop-color="#74736D" offset="0%"/><stop stop-color="#403F3B" offset="100%"/></linearGradient><linearGradient x1="26.97%" y1="15.31%" x2="74.92%" y2="92.47%" id="w"><stop stop-color="#010005" stop-opacity=".66" offset="0%"/><stop stop-color="#2E2D31" offset="100%"/></linearGradient><path d="M436.92 226.5h1.16c.67 0 .9.07 1.15.2.25.13.44.32.57.57.13.24.2.48.2 1.15v103.16c0 .67-.07.9-.2 1.15-.13.25-.32.44-.57.57-.24.13-.48.2-1.15.2h-1.16c-.67 0-.9-.07-1.15-.2a1.36 1.36 0 01-.57-.57c-.13-.24-.2-.48-.2-1.15V228.42c0-.67.07-.9.2-1.15.13-.25.32-.44.57-.57.24-.13.48-.2 1.15-.2z" id="b"/><path d="M1.92 140.5h1.16c.67 0 .9.07 1.15.2.25.13.44.32.57.57.13.24.2.48.2 1.15v30.16c0 .67-.07.9-.2 1.15-.13.25-.32.44-.57.57-.24.13-.48.2-1.15.2H1.92c-.67 0-.9-.07-1.15-.2a1.36 1.36 0 01-.57-.57c-.13-.24-.2-.48-.2-1.15v-30.16c0-.67.07-.9.2-1.15.13-.25.32-.44.57-.57.24-.13.48-.2 1.15-.2z" id="f"/><path d="M1.92 204.5h1.16c.67 0 .9.07 1.15.2.25.13.44.32.57.57.13.24.2.48.2 1.15v64.16c0 .67-.07.9-.2 1.15-.13.25-.32.44-.57.57-.24.13-.48.2-1.15.2H1.92c-.67 0-.9-.07-1.15-.2a1.36 1.36 0 01-.57-.57c-.13-.24-.2-.48-.2-1.15v-64.16c0-.67.07-.9.2-1.15.13-.25.32-.44.57-.57.24-.13.48-.2 1.15-.2z" id="j"/><path d="M1.92 288.5h1.16c.67 0 .9.07 1.15.2.25.13.44.32.57.57.13.24.2.48.2 1.15v64.16c0 .67-.07.9-.2 1.15-.13.25-.32.44-.57.57-.24.13-.48.2-1.15.2H1.92c-.67 0-.9-.07-1.15-.2a1.36 1.36 0 01-.57-.57c-.13-.24-.2-.48-.2-1.15v-64.16c0-.67.07-.9.2-1.15.13-.25.32-.44.57-.57.24-.13.48-.2 1.15-.2z" id="m"/><path d="M403.24 9.32a59.97 59.97 0 0124.94 24.94C433.94 45.02 437 55.7 437 85.11v717.78c0 29.42-3.06 40.09-8.82 50.85a59.97 59.97 0 01-24.94 24.94c-10.76 5.76-21.43 8.82-50.85 8.82H87.61c-29.42 0-40.09-3.06-50.85-8.82a59.97 59.97 0 01-24.94-24.94c-5.7-10.65-8.76-21.21-8.82-49.97V85.1c0-29.42 3.06-40.09 8.82-50.85A59.97 59.97 0 0136.76 9.32C47.41 3.62 57.97.56 86.73.5H352.4c29.42 0 40.09 3.06 50.85 8.82zM110 21.5H82.03c-17.82.04-25.38 1.78-32.07 5.02l-.49.24-1.45.75a40.89 40.89 0 00-17.76 18.46l-.24.5C26.74 53.22 25 60.88 25 79.18v729.28c.04 17.82 1.78 25.38 5.02 32.07l.24.49.75 1.45a40.89 40.89 0 0018.46 17.76l.5.24c6.76 3.28 14.42 5.02 32.72 5.02H357.3c18.3 0 25.96-1.74 32.73-5.02l.49-.24 1.45-.75a40.89 40.89 0 0017.76-18.46l.24-.5c3.28-6.76 5.02-14.42 5.02-32.72V79.2c0-18.3-1.74-25.96-5.02-32.73l-.24-.49-.75-1.45a40.89 40.89 0 00-18.46-17.76l-.5-.24c-6.76-3.28-14.42-5.02-32.72-5.02h-27.77c-1 .04-1.78.27-2.44.67a4.32 4.32 0 00-1.67 1.89c-.39.81-.6 1.14-.6 2.44 0 5.99-1.06 9.47-3.06 13.21-2 3.75-4.93 6.68-8.67 8.69-3.65 1.95-7.71 3.01-14.76 3.06H141.87c-7.06-.05-11.12-1.11-14.77-3.06-3.74-2-6.67-4.94-8.67-8.69-2-3.74-3.06-7.2-3.07-13.21 0-1.3-.22-1.63-.63-2.45a4.44 4.44 0 00-1.8-1.88 5.57 5.57 0 00-2.63-.67h-.3z" id="p"/><path d="M402.26 11.05a58.15 58.15 0 0124.2 24.2c5.57 10.42 8.54 20.77 8.54 49.3v718.9c0 28.53-2.97 38.88-8.55 49.3a58.15 58.15 0 01-24.2 24.2c-10.42 5.58-20.77 8.55-49.3 8.55H87.06c-28.53 0-38.88-2.97-49.3-8.55a58.15 58.15 0 01-24.2-24.2C8.03 842.44 5.06 832.2 5 804.32V84.54c0-28.52 2.97-38.87 8.55-49.3a58.15 58.15 0 0124.2-24.2C48.06 5.54 58.3 2.57 86.18 2.5h266.77c28.52 0 38.87 2.97 49.3 8.55zM110 21.5H82.03c-17.82.04-25.38 1.78-32.07 5.02l-.49.24-1.45.75a40.89 40.89 0 00-17.76 18.46l-.24.5C26.74 53.22 25 60.88 25 79.18v729.28c.04 17.82 1.78 25.38 5.02 32.07l.24.49.75 1.45a40.89 40.89 0 0018.46 17.76l.5.24c6.76 3.28 14.42 5.02 32.72 5.02H357.3c18.3 0 25.96-1.74 32.73-5.02l.49-.24 1.45-.75a40.89 40.89 0 0017.76-18.46l.24-.5c3.28-6.76 5.02-14.42 5.02-32.72V79.2c0-18.3-1.74-25.96-5.02-32.73l-.24-.49-.75-1.45a40.89 40.89 0 00-18.46-17.76l-.5-.24c-6.76-3.28-14.42-5.02-32.72-5.02h-27.77c-1 .04-1.78.27-2.44.67a4.32 4.32 0 00-1.67 1.89c-.39.81-.6 1.14-.6 2.44 0 5.99-1.06 9.47-3.06 13.21-2 3.75-4.93 6.68-8.67 8.69-3.65 1.95-7.71 3.01-14.76 3.06H141.87c-7.06-.05-11.12-1.11-14.77-3.06-3.74-2-6.67-4.94-8.67-8.69-2-3.74-3.06-7.2-3.07-13.21 0-1.3-.22-1.63-.63-2.45a4.44 4.44 0 00-1.8-1.88 5.57 5.57 0 00-2.63-.67h-.3z" id="s"/><path d="M399.28 14.78a56.34 56.34 0 0123.44 23.44c5.4 10.1 8.28 20.12 8.28 47.76v716.04c0 27.64-2.88 37.66-8.28 47.76a56.34 56.34 0 01-23.44 23.44c-10.1 5.4-20.12 8.28-47.76 8.28H88.48c-27.64 0-37.66-2.88-47.76-8.28a56.34 56.34 0 01-23.44-23.44c-5.35-10-8.22-19.92-8.28-46.94V85.98c0-27.64 2.88-37.66 8.28-47.76a56.34 56.34 0 0123.44-23.44c10-5.35 19.92-8.22 46.94-8.28h263.86c27.64 0 37.66 2.88 47.76 8.28zM110 21.5H82.03c-17.82.04-25.38 1.78-32.07 5.02l-.49.24-1.45.75a40.89 40.89 0 00-17.76 18.46l-.24.5C26.74 53.22 25 60.88 25 79.18v729.28c.04 17.82 1.78 25.38 5.02 32.07l.24.49.75 1.45a40.89 40.89 0 0018.46 17.76l.5.24c6.76 3.28 14.42 5.02 32.72 5.02H357.3c18.3 0 25.96-1.74 32.73-5.02l.49-.24 1.45-.75a40.89 40.89 0 0017.76-18.46l.24-.5c3.28-6.76 5.02-14.42 5.02-32.72V79.2c0-18.3-1.74-25.96-5.02-32.73l-.24-.49-.75-1.45a40.89 40.89 0 00-18.46-17.76l-.5-.24c-6.76-3.28-14.42-5.02-32.72-5.02h-27.77c-1 .04-1.78.27-2.44.67a4.32 4.32 0 00-1.67 1.89c-.39.81-.6 1.14-.6 2.44 0 5.99-1.06 9.47-3.06 13.21-2 3.75-4.93 6.68-8.67 8.69-3.65 1.95-7.71 3.01-14.76 3.06H141.87c-7.06-.05-11.12-1.11-14.77-3.06-3.74-2-6.67-4.94-8.67-8.69-2-3.74-3.06-7.2-3.07-13.21 0-1.3-.22-1.63-.63-2.45a4.44 4.44 0 00-1.8-1.88 5.57 5.57 0 00-2.63-.67h-.3z" id="u"/><path d="M5.61 6C7 6 8.11 4.66 8.11 3S7 0 5.61 0s0 1.5 0 3.16c0 1.66-1.38 2.84 0 2.84z" id="y"/><path d="M.61 6C2 6 3.11 4.66 3.11 3S2 0 .61 0s0 1.5 0 3.16C.61 4.82-.77 6 .61 6z" id="A"/><filter x="-40%" y="-1.9%" width="180%" height="103.7%" filterUnits="objectBoundingBox" id="d"><feGaussianBlur stdDeviation="2" in="SourceAlpha" result="shadowBlurInner1"/><feOffset in="shadowBlurInner1" result="shadowOffsetInner1"/><feComposite in="shadowOffsetInner1" in2="SourceAlpha" operator="arithmetic" k2="-1" k3="1" result="shadowInnerInner1"/><feColorMatrix values="0 0 0 0 0.0941176471 0 0 0 0 0.0901960784 0 0 0 0 0.109803922 0 0 0 0.7 0" in="shadowInnerInner1"/></filter><filter x="-40%" y="-5.9%" width="180%" height="111.8%" filterUnits="objectBoundingBox" id="h"><feGaussianBlur stdDeviation="2" in="SourceAlpha" result="shadowBlurInner1"/><feOffset in="shadowBlurInner1" result="shadowOffsetInner1"/><feComposite in="shadowOffsetInner1" in2="SourceAlpha" operator="arithmetic" k2="-1" k3="1" result="shadowInnerInner1"/><feColorMatrix values="0 0 0 0 0.0941176471 0 0 0 0 0.0901960784 0 0 0 0 0.109803922 0 0 0 0.7 0" in="shadowInnerInner1"/></filter><filter x="-40%" y="-2.9%" width="180%" height="105.9%" filterUnits="objectBoundingBox" id="l"><feGaussianBlur stdDeviation="2" in="SourceAlpha" result="shadowBlurInner1"/><feOffset in="shadowBlurInner1" result="shadowOffsetInner1"/><feComposite in="shadowOffsetInner1" in2="SourceAlpha" operator="arithmetic" k2="-1" k3="1" result="shadowInnerInner1"/><feColorMatrix values="0 0 0 0 0.0941176471 0 0 0 0 0.0901960784 0 0 0 0 0.109803922 0 0 0 0.7 0" in="shadowInnerInner1"/></filter><filter x="-40%" y="-2.9%" width="180%" height="105.9%" filterUnits="objectBoundingBox" id="n"><feGaussianBlur stdDeviation="2" in="SourceAlpha" result="shadowBlurInner1"/><feOffset in="shadowBlurInner1" result="shadowOffsetInner1"/><feComposite in="shadowOffsetInner1" in2="SourceAlpha" operator="arithmetic" k2="-1" k3="1" result="shadowInnerInner1"/><feColorMatrix values="0 0 0 0 0.0941176471 0 0 0 0 0.0901960784 0 0 0 0 0.109803922 0 0 0 0.7 0" in="shadowInnerInner1"/></filter><filter x="-.1%" y="-.1%" width="100.2%" height="100.1%" filterUnits="objectBoundingBox" id="q"><feMorphology radius="1" in="SourceAlpha" result="shadowSpreadInner1"/><feOffset in="shadowSpreadInner1" result="shadowOffsetInner1"/><feComposite in="shadowOffsetInner1" in2="SourceAlpha" operator="arithmetic" k2="-1" k3="1" result="shadowInnerInner1"/><feColorMatrix values="0 0 0 0 0.031372549 0 0 0 0 0.0274509804 0 0 0 0 0.0470588235 0 0 0 1 0" in="shadowInnerInner1"/></filter><filter x="-.1%" y="-.1%" width="100.2%" height="100.1%" filterUnits="objectBoundingBox" id="t"><feMorphology radius="1" in="SourceAlpha" result="shadowSpreadInner1"/><feOffset in="shadowSpreadInner1" result="shadowOffsetInner1"/><feComposite in="shadowOffsetInner1" in2="SourceAlpha" operator="arithmetic" k2="-1" k3="1" result="shadowInnerInner1"/><feColorMatrix values="0 0 0 0 0.031372549 0 0 0 0 0.0274509804 0 0 0 0 0.0470588235 0 0 0 0.5 0" in="shadowInnerInner1"/></filter><filter x="-16.1%" y="-8.3%" width="132.1%" height="116.7%" filterUnits="objectBoundingBox" id="z"><feGaussianBlur stdDeviation=".5" in="SourceAlpha" result="shadowBlurInner1"/><feOffset in="shadowBlurInner1" result="shadowOffsetInner1"/><feComposite in="shadowOffsetInner1" in2="SourceAlpha" operator="arithmetic" k2="-1" k3="1" result="shadowInnerInner1"/><feColorMatrix values="0 0 0 0 0 0 0 0 0 0 0 0 0 0 0 0 0 0 0.5 0" in="shadowInnerInner1"/></filter><filter x="-16.1%" y="-8.3%" width="132.1%" height="116.7%" filterUnits="objectBoundingBox" id="B"><feGaussianBlur stdDeviation=".5" in="SourceAlpha" result="shadowBlurInner1"/><feOffset in="shadowBlurInner1" result="shadowOffsetInner1"/><feComposite in="shadowOffsetInner1" in2="SourceAlpha" operator="arithmetic" k2="-1" k3="1" result="shadowInnerInner1"/><feColorMatrix values="0 0 0 0 0 0 0 0 0 0 0 0 0 0 0 0 0 0 0.5 0" in="shadowInnerInner1"/></filter><radialGradient cx="24.8%" cy="50%" fx="24.8%" fy="50%" r="123.55%" gradientTransform="matrix(0 .51894 -.79225 0 .64 .37)" id="x"><stop stop-color="#1F85DE" offset="0%"/><stop stop-color="#1B75C9" offset="25.79%"/><stop stop-color="#000232" offset="100%"/></radialGradient><circle id="v" cx="67" cy="6" r="6"/></defs><g fill="none" fill-rule="evenodd"><g><use fill="url(#a)" xlink:href="#b"/><use fill-opacity=".5" fill="url(#c)" xlink:href="#b"/><use fill="#000" filter="url(#d)" xlink:href="#b"/></g><g transform="matrix(-1 0 0 1 5 0)"><use fill="url(#e)" xlink:href="#f"/><use fill-opacity=".5" fill="url(#g)" xlink:href="#f"/><use fill="#000" filter="url(#h)" xlink:href="#f"/></g><g transform="matrix(-1 0 0 1 5 0)"><use fill="url(#i)" xlink:href="#j"/><use fill-opacity=".5" fill="url(#k)" xlink:href="#j"/><use fill="#000" filter="url(#l)" xlink:href="#j"/></g><g transform="matrix(-1 0 0 1 5 0)"><use fill="url(#i)" xlink:href="#m"/><use fill-opacity=".5" fill="url(#k)" xlink:href="#m"/><use fill="#000" filter="url(#n)" xlink:href="#m"/></g><g><use fill="url(#o)" xlink:href="#p"/><use fill="#000" filter="url(#q)" xlink:href="#p"/></g><g><use fill="url(#r)" xlink:href="#s"/><use fill="#000" filter="url(#t)" xlink:href="#s"/></g><g><use fill="#010005" xlink:href="#u"/><path stroke-opacity=".5" stroke="#171614" stroke-width="2" d="M351.52 5.5c27.92 0 38.03 2.94 48.23 8.4a57.32 57.32 0 0123.85 23.85c5.4 10.1 8.34 20.1 8.4 47.4v716.87c0 27.92-2.94 38.03-8.4 48.23a57.32 57.32 0 01-23.85 23.85c-10.1 5.4-20.1 8.34-47.4 8.4H88.48c-27.92 0-38.03-2.94-48.23-8.4a57.32 57.32 0 01-24.7-25.47l-.4-.82-.3-.61C10.48 838.06 8.1 827.6 8 803.58V85.14c.06-26.46 2.82-36.68 7.92-46.48l.32-.61.16-.3a57.32 57.32 0 0125.47-24.7l.82-.4.61-.3C52.44 7.98 62.9 5.6 86.92 5.5h264.6zm-241.55 17h-28.6c-16.89.08-24.28 1.72-30.97 4.92h0l-.48.24-.72.36h0l-.7.37A39.9 39.9 0 0031.9 45h0l-.38.72-.37.71-.23.48-.12.25c-3.12 6.54-4.76 14.03-4.8 31.4h0V809.12c.08 16.89 1.72 24.28 4.92 30.97h0l.24.48.36.72h0l.37.7a39.9 39.9 0 0016.6 16.6h0l.72.38.71.37.48.23.25.12c6.54 3.12 14.03 4.76 31.4 4.8h275.92c17.36-.04 24.86-1.68 31.63-4.92h0l.48-.24.72-.36h0l.7-.37a39.9 39.9 0 0016.6-16.6h0l.38-.72.37-.71.23-.48.12-.25c3.12-6.54 4.76-14.03 4.8-31.4h0V78.54c-.04-17.36-1.68-24.86-4.92-31.63h0l-.24-.48-.36-.72h0l-.37-.7a39.9 39.9 0 00-16.6-16.6h0l-.72-.38-.71-.37-.48-.23-.25-.12c-6.54-3.12-14.03-4.76-31.4-4.8h0-28.39l-.26.02c-.67.05-1.21.22-1.68.5-.57.35-1 .86-1.37 1.63-.27.57-.42.87-.42 1.85 0 6.2-1.1 9.8-3.18 13.68-2.1 3.92-5.16 7-9.08 9.1-3.66 1.96-7.73 3.07-14.67 3.18h0H141.31c-6.95-.1-11.02-1.22-14.68-3.18a21.85 21.85 0 01-9.08-9.1c-2.07-3.87-3.18-7.45-3.19-13.68 0-.98-.16-1.29-.52-1.99a3.46 3.46 0 00-1.4-1.47 5.38 5.38 0 00-2.47-.54h0z"/><use stroke="#000" xlink:href="#u"/></g><path d="M110.3 21.5c1.08.04 1.91.27 2.63.67a4.44 4.44 0 011.8 1.88c.41.82.63 1.16.63 2.45 0 6 1.07 9.47 3.07 13.21 2 3.75 4.93 6.68 8.67 8.69 3.74 2 7.92 3.06 15.31 3.06h155.93c7.05-.05 11.11-1.11 14.76-3.06 3.74-2 6.67-4.94 8.67-8.69 2-3.74 3.06-7.22 3.06-13.21 0-1.3.21-1.63.6-2.44.38-.82.95-1.46 1.67-1.9a5.06 5.06 0 012.72-.66h27.5c18.29 0 25.95 1.74 32.72 5.02l.49.24 1.45.75a40.89 40.89 0 0117.76 18.46l.24.5c3.28 6.76 5.02 14.42 5.02 32.72V807.8c0 18.3-1.74 25.96-5.02 32.73l-.24.49-.75 1.45a40.89 40.89 0 01-18.46 17.76l-.5.24c-6.76 3.28-14.42 5.02-32.72 5.02H82.7c-18.3 0-25.96-1.74-32.73-5.02l-.49-.24-1.45-.75a40.89 40.89 0 01-17.76-18.46l-.24-.5c-3.24-6.68-4.98-14.24-5.02-32.06V79.19c0-18.3 1.74-25.96 5.02-32.73l.24-.49.75-1.45a40.89 40.89 0 0118.46-17.76l.5-.24c6.68-3.24 14.24-4.98 32.06-5.02H110z" stroke-opacity=".5" stroke="#010005" stroke-width="1.5"/><g opacity=".5" transform="translate(195 27.5)"><use stroke-opacity=".25" stroke="#A0A9BB" xlink:href="#v"/><use stroke="url(#w)" xlink:href="#v"/></g><g transform="translate(258 30.5)"><use fill="url(#x)" xlink:href="#y"/><use fill="#000" filter="url(#z)" xlink:href="#y"/></g><g transform="matrix(-1 0 0 1 261.11 30.5)"><use fill="url(#x)" xlink:href="#A"/><use fill="#000" filter="url(#B)" xlink:href="#A"/></g><path d="M198 30.5h42a3 3 0 010 6h-42a3 3 0 110-6z" fill="#0F1013"/></g></svg>